<svg width="163" height="164" viewBox="0 0 163 164" fill="none" xmlns="http://www.w3.org/2000/svg">
<g filter="url(#filter0_f_447_312)">
<path d="M48.5664 132.65L50.8014 133.974C60.1884 139.545 70.9514 142.492 81.9274 142.497H81.9504C115.657 142.497 143.089 115.071 143.103 81.3618C143.109 65.0268 136.754 49.6658 125.208 38.1108C119.545 32.4122 112.808 27.8934 105.387 24.8161C97.9661 21.7387 90.0082 20.1639 81.9744 20.1828C48.2414 20.1828 20.8084 47.6058 20.7964 81.3128C20.7798 92.8228 24.021 104.102 30.1454 113.848L31.6004 116.16L25.4214 138.718L48.5664 132.65ZM7.75537 156.194L18.1944 118.08C11.7564 106.926 8.36937 94.2718 8.37337 81.3078C8.39037 40.7518 41.3944 7.75781 81.9514 7.75781C101.632 7.76781 120.105 15.4268 133.998 29.3298C147.891 43.2328 155.535 61.7128 155.528 81.3668C155.51 121.92 122.501 154.92 81.9504 154.92H81.9184C69.6054 154.915 57.5064 151.826 46.7594 145.966L7.75537 156.194Z" fill="#B3B3B3"/>
</g>
<path d="M7 155.436L17.439 117.322C10.9899 106.141 7.60242 93.4575 7.618 80.55C7.635 39.994 40.639 7 81.196 7C100.877 7.01 119.35 14.669 133.243 28.572C147.136 42.475 154.78 60.955 154.773 80.609C154.755 121.162 121.746 154.162 81.195 154.162H81.163C68.85 154.157 56.751 151.068 46.004 145.208L7 155.436Z" fill="white"/>
<path d="M81.2181 19.426C47.4851 19.426 20.0521 46.849 20.0401 80.556C20.0235 92.0659 23.2647 103.346 29.3891 113.091L30.8441 115.404L24.6651 137.962L47.8111 131.893L50.0461 133.217C59.4331 138.788 70.1961 141.734 81.1721 141.74H81.1951C114.902 141.74 142.335 114.314 142.348 80.6049C142.374 72.5705 140.805 64.6109 137.733 57.1868C134.662 49.7627 130.148 43.0217 124.453 37.354C118.79 31.6552 112.053 27.1364 104.631 24.059C97.2102 20.9817 89.2521 19.4069 81.2181 19.426Z" fill="#00AEEF"/>
<path fill-rule="evenodd" clip-rule="evenodd" d="M62.8061 49.801C61.4281 46.74 59.9781 46.678 58.6691 46.625L55.1451 46.582C53.9191 46.582 51.9271 47.042 50.2431 48.882C48.5591 50.722 43.8081 55.169 43.8081 64.214C43.8081 73.259 50.3961 81.999 51.3141 83.227C52.2321 84.455 64.0321 103.608 82.7191 110.977C98.2481 117.101 101.408 115.883 104.78 115.577C108.152 115.271 115.657 111.13 117.188 106.837C118.719 102.544 118.72 98.866 118.261 98.097C117.802 97.328 116.576 96.871 114.736 95.951C112.896 95.031 103.859 90.584 102.174 89.97C100.489 89.356 99.2641 89.051 98.0371 90.891C96.8101 92.731 93.2911 96.87 92.2181 98.097C91.1451 99.324 90.0741 99.478 88.2341 98.559C86.3941 97.64 80.4741 95.698 73.4501 89.435C67.9851 84.562 64.2961 78.544 63.2221 76.705C62.1481 74.866 63.1081 73.87 64.0301 72.954C64.8551 72.13 65.8681 70.807 66.7891 69.734C67.7101 68.661 68.0131 67.894 68.6251 66.669C69.2371 65.444 68.9321 64.368 68.4721 63.449C68.0121 62.53 64.4401 53.437 62.8061 49.801Z" fill="white"/>
<defs>
<filter id="filter0_f_447_312" x="0.693371" y="0.695813" width="161.897" height="162.561" filterUnits="userSpaceOnUse" color-interpolation-filters="sRGB">
<feFlood flood-opacity="0" result="BackgroundImageFix"/>
<feBlend mode="normal" in="SourceGraphic" in2="BackgroundImageFix" result="shape"/>
<feGaussianBlur stdDeviation="3.531" result="effect1_foregroundBlur_447_312"/>
</filter>
</defs>
</svg>
